PathFileType	4	(X/Y/Z)	C:\Users\WrightLab\Desktop\Jo\P1_boxCal27.trc
DataRate	CameraRate	NumFrames	NumMarkers	Units	OrigDataRate	OrigDataStartFrame	OrigNumFrames
100.00	100.00	       59	19	mm	100.00	407	       465
Frame#	Time	Headset_Front			Headset_Back			Headset_Left			Headset_Right			Left_Shoulder			Right_Shoulder			Sternum			C7			Left Elbow			Right Elbow			Left Wrist			Right Wrist			Left ASIS			Right ASIS			S2			Left Knee			Right Knee			Left Ankle			Right Ankle			
		X1	Y1	Z1	X2	Y2	Z2	X3	Y3	Z3	X4	Y4	Z4	X5	Y5	Z5	X6	Y6	Z6	X7	Y7	Z7	X8	Y8	Z8	X9	Y9	Z9	X10	Y10	Z10	X11	Y11	Z11	X12	Y12	Z12	X13	Y13	Z13	X14	Y14	Z14	X15	Y15	Z15	X16	Y16	Z16	X17	Y17	Z17	X18	Y18	Z18	X19	Y19	Z19	

407	4.060																																		-185.80051	792.72229	2126.99536													-324.11765	490.29932	2243.93652	-427.26755	155.33795	2620.88623				
408	4.070																																		-183.72694	794.05054	2135.06299													-320.96844	491.32245	2251.96826	-427.55020	155.39830	2621.17651				
409	4.080																																		-182.08882	795.22449	2141.27222													-317.48315	490.61514	2264.40283	-427.54364	155.38084	2621.20605				
410	4.090																																		-180.12549	797.44000	2148.82104													-313.65884	491.97839	2271.54761	-427.47513	155.46909	2621.36108				
411	4.100																																		-177.77194	798.25696	2154.95020													-309.56781	491.84286	2283.19897	-427.86551	155.84163	2622.27148				
412	4.110																																		-176.04189	799.91876	2161.90332													-304.99890	492.76688	2295.30273	-428.09085	155.35130	2622.70776				
413	4.120																																		-173.88821	799.53656	2167.31885													-298.63754	491.34583	2307.68750	-429.26370	155.47472	2623.46143				
414	4.130																																		-171.96564	801.80829	2175.56104													-291.67572	490.17450	2317.50464	-431.25848	154.13467	2623.82129				
415	4.140																																		-169.26459	802.06506	2180.21045																-433.00092	153.27711	2623.94385				
416	4.150																																		-166.96095	801.95245	2186.16772																-434.58429	153.58882	2624.55786				
417	4.160																																		-164.35667	803.51392	2193.02588																-436.03961	151.75943	2624.37427				
418	4.170																																		-161.49377	803.63580	2197.04224																-437.58835	150.25224	2623.65894				
419	4.180																																		-158.85271	803.93188	2201.63696																-438.53278	149.49506	2623.91455				
420	4.190																																		-155.69386	803.78369	2206.29614																-439.52905	149.00661	2624.74170				
421	4.200																																		-153.43500	804.53839	2208.55054																-440.70480	147.58437	2625.16528				
422	4.210																																		-150.75955	805.35974	2213.03857																-443.15475	147.74187	2625.01733				
423	4.220																																		-147.44931	805.76379	2216.88550																-444.04254	147.63818	2624.23730				
424	4.230																																		-144.48933	806.23596	2221.80688																-443.87076	147.78673	2623.54688				
425	4.240																																		-140.68930	807.90076	2226.80322																-444.04828	148.50316	2623.49585				
426	4.250																																		-137.39896	808.33124	2230.85913																-444.52762	149.55064	2622.95361				
427	4.260																																		-134.03090	809.09332	2234.31738																-445.84131	151.00739	2623.69189				
428	4.270																																		-130.95732	811.31628	2238.24780																-446.93433	151.20251	2622.23291				
429	4.280																																		-126.87185	811.98053	2243.52393																-448.24454	150.67021	2621.71167				
430	4.290																																		-124.20745	813.12585	2244.17847																-450.26233	152.11125	2622.84106				
431	4.300																																		-120.92014	814.57434	2248.81323																-451.36011	151.66170	2620.80396				
432	4.310																																		-117.49693	816.07104	2252.39355																-452.83755	151.81021	2620.25635				
433	4.320																																		-114.12760	816.80927	2256.01440																-453.90729	153.15172	2620.49854				
434	4.330																																		-110.85915	819.48761	2261.51660																-454.33759	153.34584	2619.79590				
435	4.340																																		-107.55035	819.92169	2265.47876																-455.85593	153.36707	2619.48022				
436	4.350																																		-105.56447	821.13361	2266.35767																-457.40427	154.12306	2618.92725				
437	4.360																																		-102.65668	823.38055	2270.70337																-458.09100	154.73671	2618.82007				
438	4.370																																		-99.32548	824.01703	2274.58472																-458.24203	155.48651	2617.97681				
439	4.380																																		-96.43109	824.39557	2279.09985																-458.29562	155.75299	2617.55054				
440	4.390																																		-93.80823	825.83081	2282.87183																-458.48926	156.26187	2617.48242				
441	4.400																																		-92.16644	827.11072	2285.38232																-458.53510	156.36227	2617.29126				
442	4.410																																		-88.78922	827.41785	2289.21167																-458.60699	156.70119	2616.88696				
443	4.420																																		-86.29685	828.16803	2292.83789																-458.86365	157.44644	2616.15332				
444	4.430																																		-83.95998	829.23151	2297.29785																-458.93079	157.36424	2615.47485				
445	4.440																																		-82.01287	830.11310	2299.80859																-458.67651	157.34419	2614.25903				
446	4.450																																		-79.15240	830.07135	2304.24219																-458.51599	157.39438	2613.59448				
447	4.460																																		-76.34476	830.35394	2308.12964																-458.66983	158.40173	2613.24316				
448	4.470																																		-74.39535	830.24835	2311.86963																-458.85199	159.17101	2611.55347				
449	4.480																																		-71.86590	831.46552	2315.94336																-458.79285	159.18488	2610.49414				
450	4.490																																		-69.59663	831.34180	2320.44678																-458.90421	159.11685	2610.20630				
451	4.500																																		-66.47710	831.20624	2324.69507																-459.27521	159.27191	2609.90649				
452	4.510																																		-63.55639	831.02515	2329.20142																-461.16309	160.90623	2609.86499				
453	4.520																																		-62.24785	831.03894	2331.18921																-463.30219	160.88028	2608.21265				
454	4.530																																		-59.45564	830.50787	2335.06348																-466.18402	161.47351	2608.08398				
455	4.540																																		-56.79207	831.51465	2341.94287																-469.96271	161.59082	2607.86621				
456	4.550																																		-53.91099	831.64301	2346.20410																-474.32825	160.88045	2606.25122				
457	4.560																																		-50.76694	829.89697	2349.35425																-479.90378	160.06966	2603.34619				
458	4.570																																		-49.35774	831.22839	2354.10254																-485.44485	157.73123	2599.42749				
459	4.580																																		-46.79866	831.66840	2357.42749																-490.25491	156.87589	2596.16577				
460	4.590																																		-44.27826	831.97980	2363.24878																-494.96738	155.38852	2592.58691				
461	4.600																																		-41.95889	833.21826	2367.81006																-499.52960	155.21999	2588.07495				
462	4.610																																		-40.07690	833.43494	2370.97119																-503.08002	153.56084	2584.97900				
463	4.620																																		-37.98869	833.41785	2373.84106																-506.75848	154.74371	2582.50415				
464	4.630																																		-35.38424	835.08636	2378.86182																-510.14175	155.41968	2583.23096				
465	4.640																																		-34.26817	836.22125	2380.95801																-511.72488	152.53453	2583.05786				
